<svg id="装饰" xmlns="http://www.w3.org/2000/svg" width="867" height="293" viewBox="0 0 867 293">
  <metadata><?xpacket begin="﻿" id="W5M0MpCehiHzreSzNTczkc9d"?>
<x:xmpmeta xmlns:x="adobe:ns:meta/" x:xmptk="Adobe XMP Core 5.6-c138 79.159824, 2016/09/14-01:09:01        ">
   <rdf:RDF xmlns:rdf="http://www.w3.org/1999/02/22-rdf-syntax-ns#">
      <rdf:Description rdf:about=""/>
   </rdf:RDF>
</x:xmpmeta>
                                                                                                    
                                                                                                    
                                                                                                    
                                                                                                    
                                                                                                    
                                                                                                    
                                                                                                    
                                                                                                    
                                                                                                    
                                                                                                    
                                                                                                    
                                                                                                    
                                                                                                    
                                                                                                    
                                                                                                    
                                                                                                    
                                                                                                    
                                                                                                    
                                                                                                    
                                                                                                    
                           
<?xpacket end="w"?></metadata>
<defs>
    <style>
      .cls-1, .cls-3, .cls-8 {
        fill: #fff;
      }

      .cls-2, .cls-6, .cls-7, .cls-9 {
        fill: #ffc435;
      }

      .cls-10, .cls-2, .cls-3, .cls-7, .cls-8 {
        fill-rule: evenodd;
      }

      .cls-10, .cls-4, .cls-5 {
        fill: none;
        stroke-width: 3px;
      }

      .cls-10, .cls-4, .cls-7, .cls-9 {
        stroke: #ffc435;
      }

      .cls-5, .cls-8 {
        stroke: #fff;
      }

      .cls-7, .cls-8, .cls-9 {
        stroke-width: 4px;
      }
    </style>
  </defs>
  <rect id="矩形_5" data-name="矩形 5" class="cls-1" y="-1" width="867" height="294"/>
  <path id="矩形_1" data-name="矩形 1" class="cls-2" d="M626.608-255.638l586.3,338.5L863.2,688.565l-586.3-338.5Z"/>
  <g id="组_2" data-name="组 2">
    <circle id="椭圆_1_拷贝" data-name="椭圆 1 拷贝" class="cls-1" cx="58" cy="278.985" r="33.531"/>
    <path id="矩形_4" data-name="矩形 4" class="cls-2" d="M61.494,347.862l-1.868-1.086,59.331-103.508,1.868,1.087Z"/>
    <path id="矩形_4_拷贝_21" data-name="矩形 4 拷贝 21" class="cls-2" d="M65.662,348.987L63.794,347.9l59.331-103.507,1.868,1.087Z"/>
    <path id="矩形_4_拷贝" data-name="矩形 4 拷贝" class="cls-2" d="M57.6,346.39l-1.843-1.081,59.035-103.867,1.843,1.081Z"/>
    <path id="矩形_4_拷贝_2" data-name="矩形 4 拷贝 2" class="cls-2" d="M57.6,346.39l-1.843-1.081,59.035-103.867,1.843,1.081Zm-3.843-1.46-1.818-1.076,58.742-104.226L112.5,240.7Z"/>
    <path id="矩形_4_拷贝_3" data-name="矩形 4 拷贝 3" class="cls-2" d="M53.759,344.93l-1.818-1.076,58.742-104.226L112.5,240.7Zm-3.794-1.448-1.794-1.07,58.455-104.586,1.793,1.071Z"/>
    <path id="矩形_4_拷贝_4" data-name="矩形 4 拷贝 4" class="cls-2" d="M49.965,343.482l-1.794-1.07,58.455-104.586,1.793,1.071Zm-3.746-1.436-1.769-1.065,58.171-104.943,1.77,1.065Z"/>
    <path id="矩形_4_拷贝_5" data-name="矩形 4 拷贝 5" class="cls-2" d="M46.219,342.046l-1.769-1.065,58.171-104.943,1.77,1.065Zm-3.7-1.423-1.745-1.061,57.893-105.3,1.746,1.06Z"/>
    <path id="矩形_4_拷贝_6" data-name="矩形 4 拷贝 6" class="cls-2" d="M42.521,340.623l-1.745-1.061,57.893-105.3,1.746,1.06Zm-3.651-1.412-1.722-1.056L94.768,232.5l1.722,1.055Z"/>
    <path id="矩形_4_拷贝_7" data-name="矩形 4 拷贝 7" class="cls-2" d="M38.871,339.211l-1.722-1.056L94.768,232.5l1.722,1.055Zm-3.6-1.4-1.7-1.05,57.35-106.015,1.7,1.05Z"/>
    <path id="矩形_4_拷贝_8" data-name="矩形 4 拷贝 8" class="cls-2" d="M35.267,337.81l-1.7-1.05,57.35-106.015,1.7,1.05Zm-3.558-1.389-1.675-1.045L87.119,229.005l1.675,1.045Z"/>
    <path id="矩形_4_拷贝_9" data-name="矩形 4 拷贝 9" class="cls-2" d="M31.709,336.421l-1.675-1.045L87.119,229.005l1.675,1.045ZM28.2,335.044L26.544,334,83.368,227.276l1.652,1.041Z"/>
    <path id="矩形_4_拷贝_10" data-name="矩形 4 拷贝 10" class="cls-2" d="M28.2,335.044L26.544,334,83.368,227.276l1.652,1.041Zm-3.468-1.367-1.63-1.036L79.667,225.559,81.3,226.6Z"/>
    <path id="矩形_4_拷贝_11" data-name="矩形 4 拷贝 11" class="cls-2" d="M24.729,333.677l-1.63-1.036L79.667,225.559,81.3,226.6Zm-3.423-1.356L19.7,331.29,76.013,223.854l1.608,1.031Z"/>
    <path id="矩形_4_拷贝_12" data-name="矩形 4 拷贝 12" class="cls-2" d="M21.306,332.321L19.7,331.29,76.013,223.854l1.608,1.031Zm-3.379-1.345-1.585-1.026L72.408,222.159l1.585,1.027Z"/>
    <path id="矩形_4_拷贝_13" data-name="矩形 4 拷贝 13" class="cls-2" d="M17.927,330.976l-1.585-1.026L72.408,222.159l1.585,1.027Zm-3.336-1.334-1.564-1.022L68.85,220.476l1.564,1.022Z"/>
    <path id="矩形_4_拷贝_14" data-name="矩形 4 拷贝 14" class="cls-2" d="M14.591,329.642l-1.564-1.022L68.85,220.476l1.564,1.022ZM11.3,328.319L9.755,327.3,65.338,218.8l1.542,1.018Z"/>
    <path id="矩形_4_拷贝_15" data-name="矩形 4 拷贝 15" class="cls-2" d="M11.3,328.319L9.755,327.3,65.338,218.8l1.542,1.018Zm-3.251-1.314-1.521-1.013L61.872,217.141l1.521,1.014Z"/>
    <path id="矩形_4_拷贝_16" data-name="矩形 4 拷贝 16" class="cls-2" d="M8.046,327.005l-1.521-1.013L61.872,217.141l1.521,1.014Zm-3.209-1.3-1.5-1.009,55.115-109.2,1.5,1.009Z"/>
    <path id="矩形_4_拷贝_17" data-name="矩形 4 拷贝 17" class="cls-2" d="M4.837,325.7l-1.5-1.009,55.115-109.2,1.5,1.009ZM1.669,324.41L0.19,323.4,55.077,213.849l1.479,1.005Z"/>
    <path id="矩形_4_拷贝_18" data-name="矩形 4 拷贝 18" class="cls-2" d="M1.669,324.41L0.19,323.4,55.077,213.849l1.479,1.005Zm-3.127-1.283-1.459-1L51.745,212.219l1.459,1Z"/>
    <path id="矩形_4_拷贝_19" data-name="矩形 4 拷贝 19" class="cls-2" d="M-1.458,323.127l-1.459-1L51.745,212.219l1.459,1Zm-3.087-1.273-1.439-1L48.458,210.6l1.439,1Z"/>
    <path id="矩形_4_拷贝_20" data-name="矩形 4 拷贝 20" class="cls-2" d="M-4.545,321.854l-1.439-1L48.458,210.6l1.439,1Zm-3.047-1.264-1.419-.993L45.214,208.988l1.419,0.993Z"/>
  </g>
  <g id="组_1" data-name="组 1">
    <path id="椭圆_1_拷贝-2" data-name="椭圆 1 拷贝" class="cls-3" d="M192.036,61L192,22.99l20,0.037V61H192.036Z"/>
    <path id="矩形_4-2" data-name="矩形 4" class="cls-2" d="M192.22,97.363L191.3,95.749l88.163-51.456,0.922,1.614Z"/>
    <path id="矩形_4_拷贝_21-2" data-name="矩形 4 拷贝 21" class="cls-2" d="M194.83,100l-0.921-1.614,88.163-51.456,0.922,1.614Z"/>
    <path id="矩形_4_拷贝-2" data-name="矩形 4 拷贝" class="cls-2" d="M189.963,94.59l-0.905-1.6,88.1-51.852,0.906,1.6Z"/>
    <path id="矩形_4_拷贝_2-2" data-name="矩形 4 拷贝 2" class="cls-2" d="M189.963,94.59l-0.905-1.6,88.1-51.852,0.906,1.6Zm-2.226-2.742-0.889-1.584,88.033-52.245L275.77,39.6Z"/>
    <path id="矩形_4_拷贝_3-2" data-name="矩形 4 拷贝 3" class="cls-2" d="M187.737,91.847l-0.889-1.584,88.033-52.245L275.77,39.6Zm-2.195-2.712-0.873-1.569L272.642,34.93l0.873,1.569Z"/>
    <path id="矩形_4_拷贝_4-2" data-name="矩形 4 拷贝 4" class="cls-2" d="M185.542,89.135l-0.873-1.569L272.642,34.93l0.873,1.569Zm-2.165-2.682L182.52,84.9l87.917-53.024,0.857,1.555Z"/>
    <path id="矩形_4_拷贝_5-2" data-name="矩形 4 拷贝 5" class="cls-2" d="M183.377,86.453L182.52,84.9l87.917-53.024,0.857,1.555ZM181.243,83.8L180.4,82.259l87.863-53.41,0.841,1.541Z"/>
    <path id="矩形_4_拷贝_6-2" data-name="矩形 4 拷贝 6" class="cls-2" d="M181.243,83.8L180.4,82.259l87.863-53.41,0.841,1.541Zm-2.1-2.624-0.826-1.527,87.813-53.794,0.826,1.527Z"/>
    <path id="矩形_4_拷贝_7-2" data-name="矩形 4 拷贝 7" class="cls-2" d="M179.139,81.176l-0.826-1.527,87.813-53.794,0.826,1.527Zm-2.074-2.6-0.811-1.513,87.765-54.175,0.811,1.513Z"/>
    <path id="矩形_4_拷贝_8-2" data-name="矩形 4 拷贝 8" class="cls-2" d="M177.065,78.581l-0.811-1.513,87.765-54.175,0.811,1.513Zm-2.045-2.567-0.8-1.5,87.72-54.555,0.8,1.5Z"/>
    <path id="矩形_4_拷贝_9-2" data-name="矩形 4 拷贝 9" class="cls-2" d="M175.02,76.015l-0.8-1.5,87.72-54.555,0.8,1.5ZM173,73.476l-0.781-1.486L259.9,17.058l0.781,1.486Z"/>
    <path id="矩形_4_拷贝_10-2" data-name="矩形 4 拷贝 10" class="cls-2" d="M173,73.476l-0.781-1.486L259.9,17.058l0.781,1.486Zm-1.988-2.511-0.766-1.473,87.64-55.307,0.766,1.473Z"/>
    <path id="矩形_4_拷贝_11-2" data-name="矩形 4 拷贝 11" class="cls-2" d="M171.016,70.965l-0.766-1.473,87.64-55.307,0.766,1.473Zm-1.959-2.484-0.752-1.46,87.6-55.679,0.752,1.46Z"/>
    <path id="矩形_4_拷贝_12-2" data-name="矩形 4 拷贝 12" class="cls-2" d="M169.057,68.481l-0.752-1.46,87.6-55.679,0.752,1.46Zm-1.932-2.457-0.737-1.447,87.571-56.05L254.7,9.975Z"/>
    <path id="矩形_4_拷贝_13-2" data-name="矩形 4 拷贝 13" class="cls-2" d="M167.125,66.024l-0.737-1.447,87.571-56.05L254.7,9.975Zm-1.9-2.43L164.5,62.16,252.04,5.741l0.723,1.435Z"/>
    <path id="矩形_4_拷贝_14-2" data-name="矩形 4 拷贝 14" class="cls-2" d="M165.221,63.594L164.5,62.16,252.04,5.741l0.723,1.435Zm-1.876-2.4-0.709-1.422L250.15,2.984l0.709,1.422Z"/>
    <path id="矩形_4_拷贝_15-2" data-name="矩形 4 拷贝 15" class="cls-2" d="M163.345,61.19l-0.709-1.422L250.15,2.984l0.709,1.422Zm-1.85-2.378L160.8,57.4,248.29,0.254l0.7,1.41Z"/>
    <path id="矩形_4_拷贝_16-2" data-name="矩形 4 拷贝 16" class="cls-2" d="M161.5,58.812L160.8,57.4,248.29,0.254l0.7,1.41Zm-1.824-2.352-0.681-1.4L246.458-2.449l0.682,1.4Z"/>
    <path id="矩形_4_拷贝_17-2" data-name="矩形 4 拷贝 17" class="cls-2" d="M159.671,56.46l-0.681-1.4L246.458-2.449l0.682,1.4Zm-1.8-2.327-0.667-1.385L244.656-5.124l0.668,1.385Z"/>
    <path id="矩形_4_拷贝_18-2" data-name="矩形 4 拷贝 18" class="cls-2" d="M157.874,54.132l-0.667-1.385L244.656-5.124l0.668,1.385Zm-1.771-2.3-0.654-1.373,87.433-58.23L243.537-6.4Z"/>
    <path id="矩形_4_拷贝_19-2" data-name="矩形 4 拷贝 19" class="cls-2" d="M156.1,51.83l-0.654-1.373,87.433-58.23L243.537-6.4Zm-1.745-2.278-0.641-1.362L241.137-10.4l0.641,1.362Z"/>
    <path id="矩形_4_拷贝_20-2" data-name="矩形 4 拷贝 20" class="cls-2" d="M154.358,49.553l-0.641-1.362L241.137-10.4l0.641,1.362Zm-1.72-2.253-0.628-1.35,87.409-58.941,0.628,1.35Z"/>
  </g>
  <rect id="矩形_2" data-name="矩形 2" class="cls-4" x="12" y="13" width="32" height="32"/>
  <circle id="椭圆_1" data-name="椭圆 1" class="cls-4" cx="326.562" cy="248.656" r="30.5"/>
  <circle id="椭圆_1_拷贝_3" data-name="椭圆 1 拷贝 3" class="cls-5" cx="807" cy="37" r="14"/>
  <ellipse id="椭圆_1_拷贝_2" data-name="椭圆 1 拷贝 2" class="cls-4" cx="45" cy="287.5" rx="35" ry="35.5"/>
  <rect id="矩形_3" data-name="矩形 3" class="cls-6" x="50" y="46" width="14" height="14"/>
  <path id="矩形_3_拷贝_3" data-name="矩形 3 拷贝 3" class="cls-7" d="M-18.8,109.185l46-80.87,2.6,1.5-46,80.87Z"/>
  <path id="矩形_3_拷贝_4" data-name="矩形 3 拷贝 4" class="cls-7" d="M378.289,57.451l49-84.87,2.6,1.5-49,84.871Z"/>
  <path id="矩形_3_拷贝_6" data-name="矩形 3 拷贝 6" class="cls-8" d="M785.2,71.185l49-84.87,2.6,1.5-49,84.871Z"/>
  <path id="矩形_3_拷贝_7" data-name="矩形 3 拷贝 7" class="cls-8" d="M403.637,318.864l42.157-71.277,2.569,1.549-42.157,71.277Z"/>
  <path id="矩形_3_拷贝_5" data-name="矩形 3 拷贝 5" class="cls-7" d="M239.378,371.185l78-130.87,2.6,1.5-78,130.87Z"/>
  <circle id="椭圆_2" data-name="椭圆 2" class="cls-9" cx="350.5" cy="148.5" r="6.5"/>
  <path id="矩形_2_拷贝" data-name="矩形 2 拷贝" class="cls-10" d="M380,18.013L409.993,76H350.007Z"/>
</svg>
